<mxfile host="app.diagrams.net" modified="2023-12-10T13:24:03.645Z" agent="Mozilla/5.0 (Windows NT 10.0; Win64; x64) AppleWebKit/537.36 (KHTML, like Gecko) Chrome/119.0.0.0 Safari/537.36" etag="kuEyM2yjEAijbCx_Scqb" version="22.1.7" type="github">
  <diagram name="第 1 页" id="5-BBIdNdBMwohAzquTfe">
    <mxGraphModel dx="1246" dy="735" grid="0" gridSize="10" guides="1" tooltips="1" connect="1" arrows="1" fold="1" page="1" pageScale="1" pageWidth="2336" pageHeight="1654" math="0" shadow="0">
      <root>
        <mxCell id="0" />
        <mxCell id="1" parent="0" />
        <mxCell id="6_iinYFolhVTeJKhGzNE-25" value="" style="rounded=1;whiteSpace=wrap;html=1;fillColor=#dae8fc;strokeColor=#6c8ebf;" vertex="1" parent="1">
          <mxGeometry x="260" y="115" width="790" height="115" as="geometry" />
        </mxCell>
        <mxCell id="6_iinYFolhVTeJKhGzNE-13" value="" style="rounded=1;whiteSpace=wrap;html=1;fillColor=#d5e8d4;strokeColor=#82b366;" vertex="1" parent="1">
          <mxGeometry x="1068" y="160" width="200" height="270" as="geometry" />
        </mxCell>
        <mxCell id="6_iinYFolhVTeJKhGzNE-43" style="edgeStyle=orthogonalEdgeStyle;rounded=0;orthogonalLoop=1;jettySize=auto;html=1;exitX=1;exitY=0.5;exitDx=0;exitDy=0;exitPerimeter=0;entryX=0;entryY=0.5;entryDx=0;entryDy=0;" edge="1" parent="1" source="6_iinYFolhVTeJKhGzNE-1" target="6_iinYFolhVTeJKhGzNE-2">
          <mxGeometry relative="1" as="geometry" />
        </mxCell>
        <mxCell id="6_iinYFolhVTeJKhGzNE-1" value="" style="outlineConnect=0;dashed=0;verticalLabelPosition=bottom;verticalAlign=top;align=center;html=1;shape=mxgraph.aws3.camera;fillColor=#000000;gradientColor=none;strokeColor=#000000;" vertex="1" parent="1">
          <mxGeometry x="140" y="130" width="79.5" height="79.5" as="geometry" />
        </mxCell>
        <mxCell id="6_iinYFolhVTeJKhGzNE-26" style="edgeStyle=orthogonalEdgeStyle;rounded=0;orthogonalLoop=1;jettySize=auto;html=1;exitX=1;exitY=0.5;exitDx=0;exitDy=0;entryX=0;entryY=0.5;entryDx=0;entryDy=0;" edge="1" parent="1" source="6_iinYFolhVTeJKhGzNE-2" target="6_iinYFolhVTeJKhGzNE-3">
          <mxGeometry relative="1" as="geometry" />
        </mxCell>
        <mxCell id="6_iinYFolhVTeJKhGzNE-2" value="&lt;font style=&quot;font-size: 16px;&quot; face=&quot;Comic Sans MS&quot;&gt;DPC&lt;/font&gt;" style="rounded=1;whiteSpace=wrap;html=1;fillColor=#f5f5f5;fontColor=#333333;strokeColor=#666666;" vertex="1" parent="1">
          <mxGeometry x="270" y="140" width="100" height="60" as="geometry" />
        </mxCell>
        <mxCell id="6_iinYFolhVTeJKhGzNE-27" style="edgeStyle=orthogonalEdgeStyle;rounded=0;orthogonalLoop=1;jettySize=auto;html=1;exitX=1;exitY=0.5;exitDx=0;exitDy=0;entryX=0;entryY=0.5;entryDx=0;entryDy=0;" edge="1" parent="1" source="6_iinYFolhVTeJKhGzNE-3" target="6_iinYFolhVTeJKhGzNE-4">
          <mxGeometry relative="1" as="geometry" />
        </mxCell>
        <mxCell id="6_iinYFolhVTeJKhGzNE-3" value="&lt;font style=&quot;font-size: 16px;&quot; face=&quot;Comic Sans MS&quot;&gt;BLC&lt;/font&gt;" style="rounded=1;whiteSpace=wrap;html=1;fillColor=#f5f5f5;strokeColor=#666666;fontColor=#333333;" vertex="1" parent="1">
          <mxGeometry x="418" y="140" width="100" height="60" as="geometry" />
        </mxCell>
        <mxCell id="6_iinYFolhVTeJKhGzNE-28" style="edgeStyle=orthogonalEdgeStyle;rounded=0;orthogonalLoop=1;jettySize=auto;html=1;exitX=1;exitY=0.5;exitDx=0;exitDy=0;entryX=0;entryY=0.5;entryDx=0;entryDy=0;" edge="1" parent="1" source="6_iinYFolhVTeJKhGzNE-4" target="6_iinYFolhVTeJKhGzNE-5">
          <mxGeometry relative="1" as="geometry" />
        </mxCell>
        <mxCell id="6_iinYFolhVTeJKhGzNE-4" value="&lt;font style=&quot;font-size: 16px;&quot; face=&quot;Comic Sans MS&quot;&gt;LSC&lt;/font&gt;" style="rounded=1;whiteSpace=wrap;html=1;fillColor=#f5f5f5;strokeColor=#666666;fontColor=#333333;" vertex="1" parent="1">
          <mxGeometry x="566" y="140" width="100" height="60" as="geometry" />
        </mxCell>
        <mxCell id="6_iinYFolhVTeJKhGzNE-29" style="edgeStyle=orthogonalEdgeStyle;rounded=0;orthogonalLoop=1;jettySize=auto;html=1;exitX=1;exitY=0.5;exitDx=0;exitDy=0;" edge="1" parent="1" source="6_iinYFolhVTeJKhGzNE-5" target="6_iinYFolhVTeJKhGzNE-7">
          <mxGeometry relative="1" as="geometry" />
        </mxCell>
        <mxCell id="6_iinYFolhVTeJKhGzNE-5" value="&lt;font style=&quot;font-size: 16px;&quot; face=&quot;Comic Sans MS&quot;&gt;NR&lt;br&gt;RAW&lt;/font&gt;" style="rounded=1;whiteSpace=wrap;html=1;fillColor=#f5f5f5;strokeColor=#666666;fontColor=#333333;" vertex="1" parent="1">
          <mxGeometry x="714" y="140" width="100" height="60" as="geometry" />
        </mxCell>
        <mxCell id="6_iinYFolhVTeJKhGzNE-30" style="edgeStyle=orthogonalEdgeStyle;rounded=0;orthogonalLoop=1;jettySize=auto;html=1;exitX=1;exitY=0.5;exitDx=0;exitDy=0;entryX=0;entryY=0.5;entryDx=0;entryDy=0;" edge="1" parent="1" source="6_iinYFolhVTeJKhGzNE-7" target="6_iinYFolhVTeJKhGzNE-8">
          <mxGeometry relative="1" as="geometry" />
        </mxCell>
        <mxCell id="6_iinYFolhVTeJKhGzNE-7" value="&lt;font face=&quot;Comic Sans MS&quot;&gt;&lt;span style=&quot;font-size: 16px;&quot;&gt;3A&lt;br&gt;AE/AWB/AF&lt;br&gt;&lt;/span&gt;&lt;/font&gt;" style="rounded=1;whiteSpace=wrap;html=1;fillColor=#f5f5f5;strokeColor=#666666;fontColor=#333333;" vertex="1" parent="1">
          <mxGeometry x="862" y="139.75" width="100" height="60" as="geometry" />
        </mxCell>
        <mxCell id="6_iinYFolhVTeJKhGzNE-31" style="edgeStyle=orthogonalEdgeStyle;rounded=0;orthogonalLoop=1;jettySize=auto;html=1;exitX=1;exitY=0.5;exitDx=0;exitDy=0;entryX=0.5;entryY=0;entryDx=0;entryDy=0;" edge="1" parent="1" source="6_iinYFolhVTeJKhGzNE-8" target="6_iinYFolhVTeJKhGzNE-9">
          <mxGeometry relative="1" as="geometry" />
        </mxCell>
        <mxCell id="6_iinYFolhVTeJKhGzNE-8" value="&lt;font face=&quot;Comic Sans MS&quot;&gt;&lt;span style=&quot;font-size: 16px;&quot;&gt;Bayer Demosaic&lt;/span&gt;&lt;/font&gt;" style="rounded=1;whiteSpace=wrap;html=1;fillColor=#f5f5f5;strokeColor=#666666;fontColor=#333333;" vertex="1" parent="1">
          <mxGeometry x="1010" y="140" width="100" height="60" as="geometry" />
        </mxCell>
        <mxCell id="6_iinYFolhVTeJKhGzNE-32" style="edgeStyle=orthogonalEdgeStyle;rounded=0;orthogonalLoop=1;jettySize=auto;html=1;exitX=0.5;exitY=1;exitDx=0;exitDy=0;entryX=0.5;entryY=0;entryDx=0;entryDy=0;" edge="1" parent="1" source="6_iinYFolhVTeJKhGzNE-9" target="6_iinYFolhVTeJKhGzNE-10">
          <mxGeometry relative="1" as="geometry" />
        </mxCell>
        <mxCell id="6_iinYFolhVTeJKhGzNE-9" value="&lt;font face=&quot;Comic Sans MS&quot;&gt;&lt;span style=&quot;font-size: 16px;&quot;&gt;GAMMA&lt;/span&gt;&lt;/font&gt;" style="rounded=1;whiteSpace=wrap;html=1;fillColor=#e1d5e7;strokeColor=#9673a6;" vertex="1" parent="1">
          <mxGeometry x="1140" y="220" width="100" height="60" as="geometry" />
        </mxCell>
        <mxCell id="6_iinYFolhVTeJKhGzNE-33" style="edgeStyle=orthogonalEdgeStyle;rounded=0;orthogonalLoop=1;jettySize=auto;html=1;exitX=0;exitY=0.5;exitDx=0;exitDy=0;entryX=1;entryY=0.5;entryDx=0;entryDy=0;" edge="1" parent="1" source="6_iinYFolhVTeJKhGzNE-10" target="6_iinYFolhVTeJKhGzNE-11">
          <mxGeometry relative="1" as="geometry" />
        </mxCell>
        <mxCell id="6_iinYFolhVTeJKhGzNE-10" value="&lt;font face=&quot;Comic Sans MS&quot;&gt;&lt;span style=&quot;font-size: 16px;&quot;&gt;CCM&lt;br&gt;&lt;/span&gt;&lt;/font&gt;" style="rounded=1;whiteSpace=wrap;html=1;fillColor=#e1d5e7;strokeColor=#9673a6;" vertex="1" parent="1">
          <mxGeometry x="1140" y="310" width="100" height="60" as="geometry" />
        </mxCell>
        <mxCell id="6_iinYFolhVTeJKhGzNE-12" value="" style="rounded=1;whiteSpace=wrap;html=1;fillColor=#fff2cc;strokeColor=#d6b656;" vertex="1" parent="1">
          <mxGeometry x="260" y="270" width="790" height="270" as="geometry" />
        </mxCell>
        <mxCell id="6_iinYFolhVTeJKhGzNE-11" value="&lt;font face=&quot;Comic Sans MS&quot;&gt;&lt;span style=&quot;font-size: 16px;&quot;&gt;CSC&lt;br&gt;&lt;/span&gt;&lt;/font&gt;" style="rounded=1;whiteSpace=wrap;html=1;fillColor=#e1d5e7;strokeColor=#9673a6;" vertex="1" parent="1">
          <mxGeometry x="1010" y="340" width="100" height="60" as="geometry" />
        </mxCell>
        <mxCell id="6_iinYFolhVTeJKhGzNE-14" value="" style="rounded=1;whiteSpace=wrap;html=1;fillColor=#ffcc99;strokeColor=#36393d;" vertex="1" parent="1">
          <mxGeometry x="420" y="280" width="540" height="120" as="geometry" />
        </mxCell>
        <mxCell id="6_iinYFolhVTeJKhGzNE-15" value="&lt;font style=&quot;font-size: 16px;&quot; face=&quot;Comic Sans MS&quot;&gt;Chroma Processing&lt;/font&gt;" style="rounded=1;whiteSpace=wrap;html=1;fillColor=none;strokeColor=none;" vertex="1" parent="1">
          <mxGeometry x="565" y="260" width="250" height="50" as="geometry" />
        </mxCell>
        <mxCell id="6_iinYFolhVTeJKhGzNE-16" value="&lt;font face=&quot;Comic Sans MS&quot;&gt;&lt;span style=&quot;font-size: 16px;&quot;&gt;Hue&amp;amp;&lt;br&gt;Saturation&lt;br&gt;&lt;/span&gt;&lt;/font&gt;" style="rounded=1;whiteSpace=wrap;html=1;fillColor=#f0a30a;fontColor=#000000;strokeColor=#BD7000;" vertex="1" parent="1">
          <mxGeometry x="530" y="320" width="100" height="60" as="geometry" />
        </mxCell>
        <mxCell id="6_iinYFolhVTeJKhGzNE-36" style="edgeStyle=orthogonalEdgeStyle;rounded=0;orthogonalLoop=1;jettySize=auto;html=1;exitX=0;exitY=0.5;exitDx=0;exitDy=0;entryX=1;entryY=0.5;entryDx=0;entryDy=0;" edge="1" parent="1" source="6_iinYFolhVTeJKhGzNE-17" target="6_iinYFolhVTeJKhGzNE-16">
          <mxGeometry relative="1" as="geometry" />
        </mxCell>
        <mxCell id="6_iinYFolhVTeJKhGzNE-17" value="&lt;font face=&quot;Comic Sans MS&quot;&gt;&lt;span style=&quot;font-size: 16px;&quot;&gt;NR&lt;br&gt;Chroma&lt;br&gt;&lt;/span&gt;&lt;/font&gt;" style="rounded=1;whiteSpace=wrap;html=1;fillColor=#f0a30a;fontColor=#000000;strokeColor=#BD7000;" vertex="1" parent="1">
          <mxGeometry x="750" y="320" width="100" height="60" as="geometry" />
        </mxCell>
        <mxCell id="6_iinYFolhVTeJKhGzNE-18" value="" style="rounded=1;whiteSpace=wrap;html=1;fillColor=#ffcccc;strokeColor=#36393d;" vertex="1" parent="1">
          <mxGeometry x="420" y="410" width="540" height="120" as="geometry" />
        </mxCell>
        <mxCell id="6_iinYFolhVTeJKhGzNE-19" value="&lt;font style=&quot;font-size: 16px;&quot; face=&quot;Comic Sans MS&quot;&gt;Luma Processing&lt;/font&gt;" style="rounded=1;whiteSpace=wrap;html=1;fillColor=none;strokeColor=none;" vertex="1" parent="1">
          <mxGeometry x="565" y="390" width="250" height="50" as="geometry" />
        </mxCell>
        <mxCell id="6_iinYFolhVTeJKhGzNE-40" style="edgeStyle=orthogonalEdgeStyle;rounded=0;orthogonalLoop=1;jettySize=auto;html=1;exitX=0;exitY=0.5;exitDx=0;exitDy=0;entryX=1;entryY=0.5;entryDx=0;entryDy=0;" edge="1" parent="1" source="6_iinYFolhVTeJKhGzNE-20" target="6_iinYFolhVTeJKhGzNE-24">
          <mxGeometry relative="1" as="geometry">
            <mxPoint x="420" y="560" as="targetPoint" />
            <Array as="points">
              <mxPoint x="410" y="480" />
              <mxPoint x="410" y="460" />
            </Array>
          </mxGeometry>
        </mxCell>
        <mxCell id="6_iinYFolhVTeJKhGzNE-20" value="&lt;font face=&quot;Comic Sans MS&quot;&gt;&lt;span style=&quot;font-size: 16px;&quot;&gt;Contrast&amp;amp;&lt;br&gt;Brightness&lt;br&gt;&lt;/span&gt;&lt;/font&gt;" style="rounded=1;whiteSpace=wrap;html=1;fillColor=#e51400;fontColor=#ffffff;strokeColor=#B20000;" vertex="1" parent="1">
          <mxGeometry x="480" y="450" width="100" height="60" as="geometry" />
        </mxCell>
        <mxCell id="6_iinYFolhVTeJKhGzNE-37" style="edgeStyle=orthogonalEdgeStyle;rounded=0;orthogonalLoop=1;jettySize=auto;html=1;exitX=0;exitY=0.5;exitDx=0;exitDy=0;" edge="1" parent="1" source="6_iinYFolhVTeJKhGzNE-21" target="6_iinYFolhVTeJKhGzNE-22">
          <mxGeometry relative="1" as="geometry" />
        </mxCell>
        <mxCell id="6_iinYFolhVTeJKhGzNE-21" value="&lt;font face=&quot;Comic Sans MS&quot;&gt;&lt;span style=&quot;font-size: 16px;&quot;&gt;NR&lt;br&gt;Luma&lt;br&gt;&lt;/span&gt;&lt;/font&gt;" style="rounded=1;whiteSpace=wrap;html=1;fillColor=#e51400;fontColor=#ffffff;strokeColor=#B20000;" vertex="1" parent="1">
          <mxGeometry x="800" y="450" width="100" height="60" as="geometry" />
        </mxCell>
        <mxCell id="6_iinYFolhVTeJKhGzNE-38" style="edgeStyle=orthogonalEdgeStyle;rounded=0;orthogonalLoop=1;jettySize=auto;html=1;exitX=0;exitY=0.5;exitDx=0;exitDy=0;" edge="1" parent="1" source="6_iinYFolhVTeJKhGzNE-22" target="6_iinYFolhVTeJKhGzNE-20">
          <mxGeometry relative="1" as="geometry" />
        </mxCell>
        <mxCell id="6_iinYFolhVTeJKhGzNE-22" value="&lt;font face=&quot;Comic Sans MS&quot;&gt;&lt;span style=&quot;font-size: 16px;&quot;&gt;Edge&lt;br&gt;Enhance&lt;br&gt;&lt;/span&gt;&lt;/font&gt;" style="rounded=1;whiteSpace=wrap;html=1;fillColor=#e51400;fontColor=#ffffff;strokeColor=#B20000;" vertex="1" parent="1">
          <mxGeometry x="640" y="450" width="100" height="60" as="geometry" />
        </mxCell>
        <mxCell id="6_iinYFolhVTeJKhGzNE-42" style="edgeStyle=orthogonalEdgeStyle;rounded=0;orthogonalLoop=1;jettySize=auto;html=1;exitX=0;exitY=0.5;exitDx=0;exitDy=0;" edge="1" parent="1" source="6_iinYFolhVTeJKhGzNE-23">
          <mxGeometry relative="1" as="geometry">
            <mxPoint x="170" y="340.2941176470588" as="targetPoint" />
          </mxGeometry>
        </mxCell>
        <mxCell id="6_iinYFolhVTeJKhGzNE-23" value="&lt;font style=&quot;font-size: 16px;&quot; face=&quot;Comic Sans MS&quot;&gt;DMA&lt;/font&gt;" style="rounded=1;whiteSpace=wrap;html=1;fillColor=#fa6800;strokeColor=#C73500;fontColor=#000000;" vertex="1" parent="1">
          <mxGeometry x="290" y="310" width="100" height="60" as="geometry" />
        </mxCell>
        <mxCell id="6_iinYFolhVTeJKhGzNE-41" style="edgeStyle=orthogonalEdgeStyle;rounded=0;orthogonalLoop=1;jettySize=auto;html=1;exitX=0.5;exitY=0;exitDx=0;exitDy=0;entryX=0.5;entryY=1;entryDx=0;entryDy=0;" edge="1" parent="1" source="6_iinYFolhVTeJKhGzNE-24" target="6_iinYFolhVTeJKhGzNE-23">
          <mxGeometry relative="1" as="geometry" />
        </mxCell>
        <mxCell id="6_iinYFolhVTeJKhGzNE-44" style="edgeStyle=orthogonalEdgeStyle;rounded=0;orthogonalLoop=1;jettySize=auto;html=1;exitX=0;exitY=0.5;exitDx=0;exitDy=0;" edge="1" parent="1" source="6_iinYFolhVTeJKhGzNE-24">
          <mxGeometry relative="1" as="geometry">
            <mxPoint x="170" y="460.2941176470588" as="targetPoint" />
          </mxGeometry>
        </mxCell>
        <mxCell id="6_iinYFolhVTeJKhGzNE-24" value="&lt;font style=&quot;font-size: 16px;&quot; face=&quot;Comic Sans MS&quot;&gt;Output&lt;br&gt;Formatter&lt;br&gt;&lt;/font&gt;" style="rounded=1;whiteSpace=wrap;html=1;fillColor=#fa6800;fontColor=#000000;strokeColor=#C73500;" vertex="1" parent="1">
          <mxGeometry x="290" y="430" width="100" height="60" as="geometry" />
        </mxCell>
        <mxCell id="6_iinYFolhVTeJKhGzNE-34" style="edgeStyle=orthogonalEdgeStyle;rounded=0;orthogonalLoop=1;jettySize=auto;html=1;exitX=0;exitY=0.5;exitDx=0;exitDy=0;entryX=1;entryY=0.5;entryDx=0;entryDy=0;" edge="1" parent="1" source="6_iinYFolhVTeJKhGzNE-11" target="6_iinYFolhVTeJKhGzNE-17">
          <mxGeometry relative="1" as="geometry" />
        </mxCell>
        <mxCell id="6_iinYFolhVTeJKhGzNE-35" style="edgeStyle=orthogonalEdgeStyle;rounded=0;orthogonalLoop=1;jettySize=auto;html=1;exitX=0;exitY=0.5;exitDx=0;exitDy=0;entryX=1;entryY=0.5;entryDx=0;entryDy=0;" edge="1" parent="1" source="6_iinYFolhVTeJKhGzNE-11" target="6_iinYFolhVTeJKhGzNE-21">
          <mxGeometry relative="1" as="geometry">
            <Array as="points">
              <mxPoint x="980" y="370" />
              <mxPoint x="980" y="480" />
            </Array>
          </mxGeometry>
        </mxCell>
        <mxCell id="6_iinYFolhVTeJKhGzNE-39" style="edgeStyle=orthogonalEdgeStyle;rounded=0;orthogonalLoop=1;jettySize=auto;html=1;exitX=0;exitY=0.5;exitDx=0;exitDy=0;entryX=1;entryY=0.5;entryDx=0;entryDy=0;" edge="1" parent="1" source="6_iinYFolhVTeJKhGzNE-16" target="6_iinYFolhVTeJKhGzNE-24">
          <mxGeometry relative="1" as="geometry">
            <Array as="points">
              <mxPoint x="410" y="350" />
              <mxPoint x="410" y="460" />
            </Array>
          </mxGeometry>
        </mxCell>
        <mxCell id="6_iinYFolhVTeJKhGzNE-45" value="&lt;font style=&quot;font-size: 16px;&quot; face=&quot;Comic Sans MS&quot;&gt;Memory&lt;br&gt;buffer&lt;br&gt;&lt;/font&gt;" style="rounded=1;whiteSpace=wrap;html=1;fillColor=none;strokeColor=none;" vertex="1" parent="1">
          <mxGeometry x="150" y="280" width="130" height="50" as="geometry" />
        </mxCell>
        <mxCell id="6_iinYFolhVTeJKhGzNE-47" value="&lt;font style=&quot;font-size: 16px;&quot; face=&quot;Comic Sans MS&quot;&gt;Live&lt;br&gt;stream&lt;br&gt;&lt;/font&gt;" style="rounded=1;whiteSpace=wrap;html=1;fillColor=none;strokeColor=none;" vertex="1" parent="1">
          <mxGeometry x="140" y="400" width="130" height="50" as="geometry" />
        </mxCell>
      </root>
    </mxGraphModel>
  </diagram>
</mxfile>
